<mxfile host="app.diagrams.net" agent="Mozilla/5.0 (Windows NT 10.0; Win64; x64) AppleWebKit/537.36 (KHTML, like Gecko) Chrome/131.0.0.0 Safari/537.36" version="25.0.3">
  <diagram name="Page-1" id="yF4YpV8rjHWGAs957Mrj">
    <mxGraphModel dx="1434" dy="772" grid="1" gridSize="10" guides="1" tooltips="1" connect="1" arrows="1" fold="1" page="1" pageScale="1" pageWidth="827" pageHeight="1169" math="0" shadow="0">
      <root>
        <mxCell id="0" />
        <mxCell id="1" parent="0" />
        <mxCell id="5u6RhYm26kkarIweKR19-13" style="edgeStyle=orthogonalEdgeStyle;rounded=0;orthogonalLoop=1;jettySize=auto;html=1;" edge="1" parent="1" source="2">
          <mxGeometry relative="1" as="geometry">
            <mxPoint x="120" y="310" as="targetPoint" />
          </mxGeometry>
        </mxCell>
        <mxCell id="2" value="Contact Page" style="whiteSpace=wrap;strokeWidth=2;" parent="1" vertex="1">
          <mxGeometry x="8" y="157" width="224" height="99" as="geometry" />
        </mxCell>
        <mxCell id="5u6RhYm26kkarIweKR19-35" value="" style="edgeStyle=orthogonalEdgeStyle;rounded=0;orthogonalLoop=1;jettySize=auto;html=1;" edge="1" parent="1" source="3">
          <mxGeometry relative="1" as="geometry">
            <mxPoint x="358" y="320" as="targetPoint" />
          </mxGeometry>
        </mxCell>
        <mxCell id="3" value="About Page" style="whiteSpace=wrap;strokeWidth=2;" parent="1" vertex="1">
          <mxGeometry x="252" y="157" width="211" height="99" as="geometry" />
        </mxCell>
        <mxCell id="4" value="Product Page" style="whiteSpace=wrap;strokeWidth=2;" parent="1" vertex="1">
          <mxGeometry x="484" y="157" width="223" height="99" as="geometry" />
        </mxCell>
        <mxCell id="5" value="Home Page" style="whiteSpace=wrap;strokeWidth=2;" parent="1" vertex="1">
          <mxGeometry x="80" y="8" width="535" height="99" as="geometry" />
        </mxCell>
        <mxCell id="5u6RhYm26kkarIweKR19-62" value="" style="edgeStyle=orthogonalEdgeStyle;rounded=0;orthogonalLoop=1;jettySize=auto;html=1;fontFamily=Helvetica;fontSize=12;fontColor=default;resizable=1;" edge="1" parent="1" target="5u6RhYm26kkarIweKR19-61">
          <mxGeometry relative="1" as="geometry">
            <mxPoint x="428" y="57.5" as="sourcePoint" />
          </mxGeometry>
        </mxCell>
        <mxCell id="5u6RhYm26kkarIweKR19-67" value="" style="edgeStyle=orthogonalEdgeStyle;rounded=0;orthogonalLoop=1;jettySize=auto;html=1;fontFamily=Helvetica;fontSize=12;fontColor=default;resizable=1;" edge="1" parent="1" source="6" target="5u6RhYm26kkarIweKR19-66">
          <mxGeometry relative="1" as="geometry" />
        </mxCell>
        <mxCell id="6" value="Homepage" style="whiteSpace=wrap;strokeWidth=2;" parent="1" vertex="1">
          <mxGeometry x="290" y="33" width="135" height="49" as="geometry" />
        </mxCell>
        <mxCell id="7" value="Menu Page" style="whiteSpace=wrap;strokeWidth=2;" parent="1" vertex="1">
          <mxGeometry x="519" y="182" width="153" height="49" as="geometry" />
        </mxCell>
        <mxCell id="8" value="About Page" style="whiteSpace=wrap;strokeWidth=2;" parent="1" vertex="1">
          <mxGeometry x="287" y="182" width="141" height="49" as="geometry" />
        </mxCell>
        <mxCell id="9" value="Contact Page" style="whiteSpace=wrap;strokeWidth=2;" parent="1" vertex="1">
          <mxGeometry x="43" y="182" width="154" height="49" as="geometry" />
        </mxCell>
        <mxCell id="5u6RhYm26kkarIweKR19-14" value="Complex form for contacting staff for questions" style="rounded=0;whiteSpace=wrap;html=1;movable=1;resizable=1;rotatable=1;deletable=1;editable=1;locked=0;connectable=1;" vertex="1" parent="1">
          <mxGeometry x="60" y="312.75" width="120" height="80" as="geometry" />
        </mxCell>
        <mxCell id="5u6RhYm26kkarIweKR19-15" value="About Page" style="whiteSpace=wrap;strokeWidth=2;" vertex="1" parent="1">
          <mxGeometry x="287" y="182" width="141" height="49" as="geometry" />
        </mxCell>
        <mxCell id="5u6RhYm26kkarIweKR19-20" style="edgeStyle=orthogonalEdgeStyle;rounded=0;orthogonalLoop=1;jettySize=auto;html=1;" edge="1" parent="1">
          <mxGeometry relative="1" as="geometry">
            <mxPoint x="120" y="440" as="targetPoint" />
            <mxPoint x="120.59999999999991" y="377.25" as="sourcePoint" />
          </mxGeometry>
        </mxCell>
        <mxCell id="5u6RhYm26kkarIweKR19-24" style="edgeStyle=orthogonalEdgeStyle;rounded=0;orthogonalLoop=1;jettySize=auto;html=1;" edge="1" parent="1" source="5u6RhYm26kkarIweKR19-22">
          <mxGeometry relative="1" as="geometry">
            <mxPoint x="120" y="560" as="targetPoint" />
          </mxGeometry>
        </mxCell>
        <mxCell id="5u6RhYm26kkarIweKR19-22" value="Location information + contact details" style="rounded=0;whiteSpace=wrap;html=1;movable=1;resizable=1;rotatable=1;deletable=1;editable=1;locked=0;connectable=1;" vertex="1" parent="1">
          <mxGeometry x="60" y="440" width="120" height="80" as="geometry" />
        </mxCell>
        <mxCell id="5u6RhYm26kkarIweKR19-25" value="FAQ API" style="rounded=0;whiteSpace=wrap;html=1;movable=1;resizable=1;rotatable=1;deletable=1;editable=1;locked=0;connectable=1;" vertex="1" parent="1">
          <mxGeometry x="70.25" y="565" width="100" height="40" as="geometry" />
        </mxCell>
        <mxCell id="5u6RhYm26kkarIweKR19-28" value="" style="endArrow=classic;startArrow=classic;html=1;rounded=0;" edge="1" parent="1">
          <mxGeometry width="50" height="50" relative="1" as="geometry">
            <mxPoint x="120.25" y="180" as="sourcePoint" />
            <mxPoint x="280" y="70" as="targetPoint" />
          </mxGeometry>
        </mxCell>
        <mxCell id="5u6RhYm26kkarIweKR19-29" value="" style="endArrow=classic;startArrow=classic;html=1;rounded=0;" edge="1" parent="1">
          <mxGeometry width="50" height="50" relative="1" as="geometry">
            <mxPoint x="425" y="70" as="sourcePoint" />
            <mxPoint x="590" y="170" as="targetPoint" />
          </mxGeometry>
        </mxCell>
        <mxCell id="5u6RhYm26kkarIweKR19-31" value="" style="endArrow=classic;startArrow=classic;html=1;rounded=0;exitX=0.5;exitY=0;exitDx=0;exitDy=0;" edge="1" parent="1" source="3">
          <mxGeometry width="50" height="50" relative="1" as="geometry">
            <mxPoint x="310" y="132" as="sourcePoint" />
            <mxPoint x="360" y="82" as="targetPoint" />
          </mxGeometry>
        </mxCell>
        <mxCell id="5u6RhYm26kkarIweKR19-40" value="" style="edgeStyle=orthogonalEdgeStyle;rounded=0;orthogonalLoop=1;jettySize=auto;html=1;fontFamily=Helvetica;fontSize=12;fontColor=default;resizable=1;" edge="1" parent="1" source="5u6RhYm26kkarIweKR19-37" target="5u6RhYm26kkarIweKR19-39">
          <mxGeometry relative="1" as="geometry" />
        </mxCell>
        <mxCell id="5u6RhYm26kkarIweKR19-37" value="&#xa;&lt;span style=&quot;color: rgb(0, 0, 0); font-family: Helvetica; font-size: 12px; font-style: normal; font-variant-ligatures: normal; font-variant-caps: normal; font-weight: 400; letter-spacing: normal; orphans: 2; text-align: center; text-indent: 0px; text-transform: none; widows: 2; word-spacing: 0px; -webkit-text-stroke-width: 0px; white-space: normal; background-color: rgb(251, 251, 251); text-decoration-thickness: initial; text-decoration-style: initial; text-decoration-color: initial; display: inline !important; float: none;&quot;&gt;Practical information about our company&lt;/span&gt;&#xa;&#xa;" style="rounded=0;whiteSpace=wrap;html=1;movable=1;resizable=1;rotatable=1;deletable=1;editable=1;locked=0;connectable=1;" vertex="1" parent="1">
          <mxGeometry x="297.5" y="320" width="120" height="80" as="geometry" />
        </mxCell>
        <mxCell id="5u6RhYm26kkarIweKR19-39" value="&#xa;&lt;span style=&quot;color: rgb(0, 0, 0); font-family: Helvetica; font-size: 12px; font-style: normal; font-variant-ligatures: normal; font-variant-caps: normal; font-weight: 400; letter-spacing: normal; orphans: 2; text-align: center; text-indent: 0px; text-transform: none; widows: 2; word-spacing: 0px; -webkit-text-stroke-width: 0px; white-space: normal; background-color: rgb(251, 251, 251); text-decoration-thickness: initial; text-decoration-style: initial; text-decoration-color: initial; display: inline !important; float: none;&quot;&gt;Useful and educational video&lt;/span&gt;&#xa;&#xa;" style="rounded=0;whiteSpace=wrap;html=1;movable=1;resizable=1;rotatable=1;deletable=1;editable=1;locked=0;connectable=1;" vertex="1" parent="1">
          <mxGeometry x="297.5" y="440" width="120" height="80" as="geometry" />
        </mxCell>
        <mxCell id="5u6RhYm26kkarIweKR19-54" value="" style="edgeStyle=orthogonalEdgeStyle;rounded=0;orthogonalLoop=1;jettySize=auto;html=1;fontFamily=Helvetica;fontSize=12;fontColor=default;resizable=1;" edge="1" parent="1" source="5u6RhYm26kkarIweKR19-42" target="5u6RhYm26kkarIweKR19-46">
          <mxGeometry relative="1" as="geometry" />
        </mxCell>
        <mxCell id="5u6RhYm26kkarIweKR19-42" value="&#xa;&lt;span style=&quot;color: rgb(0, 0, 0); font-family: Helvetica; font-size: 12px; font-style: normal; font-variant-ligatures: normal; font-variant-caps: normal; font-weight: 400; letter-spacing: normal; orphans: 2; text-align: center; text-indent: 0px; text-transform: none; widows: 2; word-spacing: 0px; -webkit-text-stroke-width: 0px; white-space: normal; background-color: rgb(251, 251, 251); text-decoration-thickness: initial; text-decoration-style: initial; text-decoration-color: initial; display: inline !important; float: none;&quot;&gt;images to fill space&lt;/span&gt;&#xa;&#xa;" style="rounded=0;whiteSpace=wrap;html=1;movable=1;resizable=1;rotatable=1;deletable=1;editable=1;locked=0;connectable=1;" vertex="1" parent="1">
          <mxGeometry x="297.5" y="560" width="112.5" height="40" as="geometry" />
        </mxCell>
        <mxCell id="5u6RhYm26kkarIweKR19-44" value="" style="endArrow=classic;html=1;rounded=0;fontFamily=Helvetica;fontSize=12;fontColor=default;resizable=1;" edge="1" parent="1">
          <mxGeometry width="50" height="50" relative="1" as="geometry">
            <mxPoint x="357.75" y="520" as="sourcePoint" />
            <mxPoint x="358" y="560" as="targetPoint" />
          </mxGeometry>
        </mxCell>
        <mxCell id="5u6RhYm26kkarIweKR19-46" value="Prompt to Menu" style="whiteSpace=wrap;strokeWidth=2;" vertex="1" parent="1">
          <mxGeometry x="313.18" y="640" width="81.13" height="40" as="geometry" />
        </mxCell>
        <mxCell id="5u6RhYm26kkarIweKR19-58" value="" style="edgeStyle=orthogonalEdgeStyle;rounded=0;orthogonalLoop=1;jettySize=auto;html=1;fontFamily=Helvetica;fontSize=12;fontColor=default;resizable=1;" edge="1" parent="1" source="5u6RhYm26kkarIweKR19-50" target="5u6RhYm26kkarIweKR19-57">
          <mxGeometry relative="1" as="geometry" />
        </mxCell>
        <mxCell id="5u6RhYm26kkarIweKR19-50" value="Product images, with explanation" style="whiteSpace=wrap;html=1;strokeWidth=2;rounded=0;strokeColor=default;align=center;verticalAlign=middle;fontFamily=Helvetica;fontSize=12;fontColor=default;resizable=1;fillColor=default;" vertex="1" parent="1">
          <mxGeometry x="540" y="322.75" width="120" height="60" as="geometry" />
        </mxCell>
        <mxCell id="5u6RhYm26kkarIweKR19-52" value="" style="endArrow=classic;html=1;rounded=0;fontFamily=Helvetica;fontSize=12;fontColor=default;resizable=1;" edge="1" parent="1">
          <mxGeometry width="50" height="50" relative="1" as="geometry">
            <mxPoint x="600" y="260" as="sourcePoint" />
            <mxPoint x="600" y="320" as="targetPoint" />
          </mxGeometry>
        </mxCell>
        <mxCell id="5u6RhYm26kkarIweKR19-57" value="Dynamic Special Menu API" style="whiteSpace=wrap;html=1;strokeWidth=2;rounded=0;resizable=1;strokeColor=default;align=center;verticalAlign=middle;fontFamily=Helvetica;fontSize=12;fontColor=default;fillColor=default;" vertex="1" parent="1">
          <mxGeometry x="540" y="440" width="120" height="60" as="geometry" />
        </mxCell>
        <mxCell id="5u6RhYm26kkarIweKR19-59" value="" style="curved=1;endArrow=classic;html=1;rounded=0;fontFamily=Helvetica;fontSize=12;fontColor=default;resizable=1;" edge="1" parent="1">
          <mxGeometry width="50" height="50" relative="1" as="geometry">
            <mxPoint x="394.31" y="660" as="sourcePoint" />
            <mxPoint x="520" y="260" as="targetPoint" />
            <Array as="points">
              <mxPoint x="444.31" y="660" />
              <mxPoint x="410" y="610" />
            </Array>
          </mxGeometry>
        </mxCell>
        <mxCell id="5u6RhYm26kkarIweKR19-61" value="Prompt to menu" style="whiteSpace=wrap;html=1;strokeWidth=2;rounded=0;strokeColor=default;align=center;verticalAlign=middle;fontFamily=Helvetica;fontSize=12;fontColor=default;resizable=1;fillColor=default;" vertex="1" parent="1">
          <mxGeometry x="466" y="28" width="87" height="42" as="geometry" />
        </mxCell>
        <mxCell id="5u6RhYm26kkarIweKR19-66" value="Prompt to About page" style="whiteSpace=wrap;html=1;strokeWidth=2;rounded=0;strokeColor=default;align=center;verticalAlign=middle;fontFamily=Helvetica;fontSize=12;fontColor=default;resizable=1;fillColor=default;" vertex="1" parent="1">
          <mxGeometry x="140" y="35" width="112" height="45" as="geometry" />
        </mxCell>
      </root>
    </mxGraphModel>
  </diagram>
</mxfile>
